<?xml version="1.0" encoding="UTF-8" standalone="no"?>
<!DOCTYPE svg PUBLIC "-//W3C//DTD SVG 1.1//EN" "http://www.w3.org/Graphics/SVG/1.1/DTD/svg11.dtd">
<svg width="100%" height="100%" viewBox="0 0 233 26" version="1.1" xmlns="http://www.w3.org/2000/svg" xmlns:xlink="http://www.w3.org/1999/xlink" xml:space="preserve" xmlns:serif="http://www.serif.com/" style="fill-rule:evenodd;clip-rule:evenodd;stroke-linejoin:round;stroke-miterlimit:2;">
    <rect x="0" y="0.022" width="23.943" height="23.955" style="fill:white;fill-rule:nonzero;"/>
    <rect x="15.821" y="15.602" width="4.106" height="3.576" style="fill-rule:nonzero;"/>
    <rect x="15.821" y="5.186" width="4.106" height="8.693" style="fill-rule:nonzero;"/>
    <path d="M9.795,15.891L7.723,15.891L7.433,19.208L5.361,19.208L5.651,15.891L4.319,15.891L4.319,13.404L5.868,13.404L6.122,10.501L4.319,10.501L4.319,8.014L6.339,8.014L6.593,5.111L8.665,5.111L8.411,8.014L10.483,8.014L10.737,5.111L12.809,5.111L12.555,8.014L13.85,8.014L13.85,10.501L12.338,10.501L12.084,13.404L13.851,13.404L13.851,15.891L11.867,15.891L11.577,19.208L9.505,19.208L9.795,15.891ZM10.266,10.501L8.194,10.501L7.94,13.404L10.012,13.404L10.266,10.501Z" style="fill-rule:nonzero;"/>
    <path d="M31.925,21L37.275,2.875L34.75,2.875L29.4,21L31.925,21Z" style="fill:white;fill-rule:nonzero;"/>
    <path d="M42.601,2.225L38.801,2.225L38.801,20L42.601,20L42.601,16.175L43.551,14.975L46.526,20L51.201,20L46.201,12.725L50.576,7.775L46.001,7.775L43.526,11.45C43.226,11.9 42.926,12.4 42.651,12.925L42.601,12.925L42.601,2.225Z" style="fill:white;fill-rule:nonzero;"/>
    <path d="M62.648,12.775C62.648,9.9 61.373,7.5 57.298,7.5C55.073,7.5 53.398,8.125 52.548,8.6L53.248,11.025C54.048,10.55 55.373,10.125 56.623,10.125C58.498,10.125 58.848,11.05 58.848,11.7L58.848,11.85C54.523,11.85 51.673,13.35 51.673,16.525C51.673,18.475 53.148,20.275 55.623,20.275C57.073,20.275 58.323,19.75 59.123,18.775L59.198,18.775L59.423,20L62.848,20C62.698,19.325 62.648,18.2 62.648,17.05L62.648,12.775ZM58.973,15.55C58.973,15.775 58.948,16 58.898,16.2C58.648,16.975 57.848,17.6 56.923,17.6C56.073,17.6 55.423,17.125 55.423,16.15C55.423,14.7 56.973,14.225 58.973,14.225L58.973,15.55Z" style="fill:white;fill-rule:nonzero;"/>
    <path d="M65.681,16.35C65.681,17.725 65.631,19.2 65.581,20L68.806,20L68.956,18.3L69.006,18.3C69.856,19.75 71.256,20.275 72.681,20.275C75.481,20.275 78.256,18.075 78.256,13.675C78.281,9.925 76.156,7.5 73.231,7.5C71.531,7.5 70.256,8.175 69.531,9.225L69.481,9.225L69.481,2.225L65.681,2.225L65.681,16.35ZM69.481,13C69.481,12.75 69.506,12.525 69.556,12.3C69.806,11.2 70.756,10.425 71.781,10.425C73.556,10.425 74.406,11.925 74.406,13.825C74.406,16.025 73.406,17.275 71.781,17.275C70.681,17.275 69.806,16.475 69.556,15.475C69.506,15.275 69.481,15.05 69.481,14.8L69.481,13Z" style="fill:white;fill-rule:nonzero;"/>
    <path d="M86.273,20.275C89.523,20.275 92.698,18.225 92.698,13.775C92.698,10.075 90.198,7.5 86.473,7.5C82.523,7.5 79.923,10.025 79.923,13.975C79.923,17.925 82.673,20.275 86.248,20.275L86.273,20.275ZM86.323,17.55C84.723,17.55 83.848,15.975 83.848,13.9C83.848,12.075 84.548,10.225 86.348,10.225C88.073,10.225 88.773,12.075 88.773,13.875C88.773,16.075 87.848,17.55 86.348,17.55L86.323,17.55Z" style="fill:white;fill-rule:nonzero;"/>
    <path d="M100.701,20.275C103.951,20.275 107.126,18.225 107.126,13.775C107.126,10.075 104.626,7.5 100.901,7.5C96.951,7.5 94.351,10.025 94.351,13.975C94.351,17.925 97.101,20.275 100.676,20.275L100.701,20.275ZM100.751,17.55C99.151,17.55 98.276,15.975 98.276,13.9C98.276,12.075 98.976,10.225 100.776,10.225C102.501,10.225 103.201,12.075 103.201,13.875C103.201,16.075 102.276,17.55 100.776,17.55L100.751,17.55Z" style="fill:white;fill-rule:nonzero;"/>
    <path d="M109.48,20L113.18,20L113.18,12.9C113.18,12.575 113.205,12.225 113.33,11.925C113.555,11.325 114.13,10.575 115.105,10.575C116.33,10.575 116.88,11.625 116.88,13.15L116.88,20L120.58,20L120.58,12.85C120.58,12.55 120.63,12.175 120.705,11.9C120.98,11.175 121.58,10.575 122.48,10.575C123.705,10.575 124.28,11.6 124.28,13.375L124.28,20L127.98,20L127.98,12.8C127.98,9.15 126.205,7.5 123.855,7.5C122.955,7.5 122.205,7.725 121.53,8.1C120.93,8.45 120.405,8.95 119.93,9.6L119.88,9.6C119.355,8.325 118.13,7.5 116.53,7.5C114.455,7.5 113.355,8.65 112.83,9.45L112.755,9.45L112.605,7.775L109.38,7.775C109.43,8.875 109.48,10.15 109.48,11.675L109.48,20Z" style="fill:white;fill-rule:nonzero;"/>
    <path d="M132.389,21L137.739,2.875L135.214,2.875L129.864,21L132.389,21Z" style="fill:white;fill-rule:nonzero;"/>
    <path d="M138.565,19.375C139.49,19.875 140.915,20.25 142.515,20.25C146.015,20.25 147.79,18.575 147.79,16.275C147.765,14.5 146.815,13.325 144.49,12.525C142.99,12.025 142.515,11.7 142.515,11.125C142.515,10.525 143.04,10.15 143.965,10.15C144.99,10.15 146.065,10.55 146.615,10.825L147.265,8.225C146.515,7.85 145.265,7.5 143.84,7.5C140.815,7.5 138.865,9.225 138.865,11.525C138.84,12.95 139.815,14.325 142.365,15.175C143.765,15.625 144.14,15.95 144.14,16.575C144.14,17.2 143.665,17.575 142.515,17.575C141.39,17.575 139.94,17.1 139.24,16.675L138.565,19.375Z" style="fill:white;fill-rule:nonzero;"/>
    <path d="M150.105,20L153.905,20L153.905,12.75C153.905,12.475 153.93,12.15 154.03,11.925C154.305,11.225 154.93,10.575 155.93,10.575C157.355,10.575 157.905,11.675 157.905,13.275L157.905,20L161.705,20L161.705,12.875C161.705,9.175 159.855,7.5 157.43,7.5C156.73,7.5 156.03,7.675 155.455,7.975C154.855,8.275 154.355,8.7 153.955,9.25L153.905,9.25L153.905,2.225L150.105,2.225L150.105,20Z" style="fill:white;fill-rule:nonzero;"/>
    <path d="M175.554,15.1C175.604,14.825 175.679,14.25 175.679,13.6C175.679,10.575 174.179,7.5 170.229,7.5C166.004,7.5 164.054,10.925 164.054,14.025C164.054,17.85 166.429,20.25 170.579,20.25C172.229,20.25 173.754,20 175.004,19.475L174.504,16.9C173.479,17.25 172.429,17.425 171.129,17.425C169.354,17.425 167.804,16.675 167.679,15.1L175.554,15.1ZM167.654,12.5C167.754,11.5 168.404,10.025 170.029,10.025C171.754,10.025 172.154,11.575 172.154,12.5L167.654,12.5Z" style="fill:white;fill-rule:nonzero;"/>
    <path d="M177.962,16.35C177.962,17.725 177.912,19.2 177.862,20L181.087,20L181.237,18.3L181.287,18.3C182.137,19.75 183.537,20.275 184.962,20.275C187.762,20.275 190.537,18.075 190.537,13.675C190.562,9.925 188.437,7.5 185.512,7.5C183.812,7.5 182.537,8.175 181.812,9.225L181.762,9.225L181.762,2.225L177.962,2.225L177.962,16.35ZM181.762,13C181.762,12.75 181.787,12.525 181.837,12.3C182.087,11.2 183.037,10.425 184.062,10.425C185.837,10.425 186.687,11.925 186.687,13.825C186.687,16.025 185.687,17.275 184.062,17.275C182.962,17.275 182.087,16.475 181.837,15.475C181.787,15.275 181.762,15.05 181.762,14.8L181.762,13Z" style="fill:white;fill-rule:nonzero;"/>
    <path d="M203.078,12.775C203.078,9.9 201.803,7.5 197.728,7.5C195.503,7.5 193.828,8.125 192.978,8.6L193.678,11.025C194.478,10.55 195.803,10.125 197.053,10.125C198.928,10.125 199.278,11.05 199.278,11.7L199.278,11.85C194.953,11.85 192.103,13.35 192.103,16.525C192.103,18.475 193.578,20.275 196.053,20.275C197.503,20.275 198.753,19.75 199.553,18.775L199.628,18.775L199.853,20L203.278,20C203.128,19.325 203.078,18.2 203.078,17.05L203.078,12.775ZM199.403,15.55C199.403,15.775 199.378,16 199.328,16.2C199.078,16.975 198.278,17.6 197.353,17.6C196.503,17.6 195.853,17.125 195.853,16.15C195.853,14.7 197.403,14.225 199.403,14.225L199.403,15.55Z" style="fill:white;fill-rule:nonzero;"/>
    <path d="M206.111,20L209.911,20L209.911,12.95C209.911,12.6 209.936,12.25 210.036,12C210.311,11.3 210.936,10.575 211.986,10.575C213.361,10.575 213.911,11.65 213.911,13.225L213.911,20L217.711,20L217.711,12.775C217.711,9.175 215.836,7.5 213.336,7.5C211.286,7.5 210.061,8.675 209.561,9.475L209.486,9.475L209.311,7.775L206.011,7.775C206.061,8.875 206.111,10.15 206.111,11.675L206.111,20Z" style="fill:white;fill-rule:nonzero;"/>
    <path d="M232.334,11.425C232.334,9.6 232.384,8.575 232.434,7.775L229.134,7.775L229.009,9.25L228.959,9.25C228.334,8.225 227.284,7.5 225.609,7.5C222.584,7.5 220.059,10 220.059,13.95C220.059,17.45 222.209,19.9 225.234,19.9C226.634,19.9 227.809,19.325 228.534,18.325L228.584,18.325L228.584,19.1C228.584,21.375 227.209,22.325 225.409,22.325C223.959,22.325 222.634,21.85 221.859,21.4L221.109,24.3C222.209,24.9 223.884,25.225 225.509,25.225C227.309,25.225 229.134,24.875 230.459,23.725C231.859,22.5 232.334,20.575 232.334,18.225L232.334,11.425ZM228.534,14.55C228.534,14.875 228.509,15.275 228.409,15.575C228.159,16.45 227.384,17.1 226.384,17.1C224.809,17.1 223.909,15.675 223.909,13.85C223.909,11.625 225.009,10.375 226.409,10.375C227.459,10.375 228.184,11.05 228.459,12.05C228.509,12.275 228.534,12.525 228.534,12.75L228.534,14.55Z" style="fill:white;fill-rule:nonzero;"/>
</svg>
