<svg width="233" height="26" viewBox="0 0 233 26" fill="none" xmlns="http://www.w3.org/2000/svg">
<path d="M23.943 0.0224609H0V23.9776H23.943V0.0224609Z" fill="black"/>
<path d="M19.9277 15.6023H15.8213V19.1783H19.9277V15.6023Z" fill="white"/>
<path d="M19.9277 5.18579H15.8213V13.8789H19.9277V5.18579Z" fill="white"/>
<path d="M9.7946 15.8913H7.72265L7.43262 19.2084H5.3606L5.65063 15.8913H4.3194V13.4036H5.86819L6.12198 10.5014H4.3194V8.01369H6.33947L6.59302 5.11121H8.66505L8.41125 8.01369H10.4833L10.7371 5.11121H12.8091L12.5553 8.01369H13.8504V10.5014H12.3379L12.0841 13.4036H13.8505V15.8913H11.8666L11.5766 19.2084H9.50457L9.7946 15.8913ZM10.2659 10.5014H8.19393L7.94013 13.4038H10.0122L10.2659 10.5014Z" fill="white"/>
<path d="M31.925 21L37.275 2.87497H34.75L29.4 21H31.925Z" fill="black"/>
<path d="M42.6014 2.22498H38.8014V20H42.6014V16.175L43.5514 14.975L46.5264 20H51.2014L46.2014 12.725L50.5764 7.77498H46.0014L43.5264 11.45C43.2264 11.9 42.9264 12.4 42.6514 12.925H42.6014V2.22498Z" fill="black"/>
<path d="M62.6483 12.775C62.6483 9.89998 61.3733 7.49998 57.2983 7.49998C55.0733 7.49998 53.3983 8.12498 52.5483 8.59998L53.2483 11.025C54.0483 10.55 55.3733 10.125 56.6233 10.125C58.4983 10.125 58.8483 11.05 58.8483 11.7V11.85C54.5233 11.85 51.6733 13.35 51.6733 16.525C51.6733 18.475 53.1483 20.275 55.6233 20.275C57.0733 20.275 58.3233 19.75 59.1233 18.775H59.1983L59.4233 20H62.8483C62.6983 19.325 62.6483 18.2 62.6483 17.05V12.775ZM58.9733 15.55C58.9733 15.775 58.9483 16 58.8983 16.2C58.6483 16.975 57.8483 17.6 56.9233 17.6C56.0733 17.6 55.4233 17.125 55.4233 16.15C55.4233 14.7 56.9733 14.225 58.9733 14.225V15.55Z" fill="black"/>
<path d="M65.6813 16.35C65.6813 17.725 65.6313 19.2 65.5813 20H68.8063L68.9563 18.3H69.0063C69.8563 19.75 71.2563 20.275 72.6813 20.275C75.4813 20.275 78.2563 18.075 78.2563 13.675C78.2813 9.92498 76.1563 7.49998 73.2313 7.49998C71.5313 7.49998 70.2563 8.17498 69.5313 9.22498H69.4813V2.22498H65.6813V16.35ZM69.4813 13C69.4813 12.75 69.5063 12.525 69.5563 12.3C69.8063 11.2 70.7563 10.425 71.7813 10.425C73.5563 10.425 74.4063 11.925 74.4063 13.825C74.4063 16.025 73.4063 17.275 71.7813 17.275C70.6813 17.275 69.8063 16.475 69.5563 15.475C69.5063 15.275 69.4813 15.05 69.4813 14.8V13Z" fill="black"/>
<path d="M86.2727 20.275C89.5227 20.275 92.6977 18.225 92.6977 13.775C92.6977 10.075 90.1977 7.49998 86.4727 7.49998C82.5227 7.49998 79.9227 10.025 79.9227 13.975C79.9227 17.925 82.6727 20.275 86.2477 20.275H86.2727ZM86.3227 17.55C84.7227 17.55 83.8477 15.975 83.8477 13.9C83.8477 12.075 84.5477 10.225 86.3477 10.225C88.0727 10.225 88.7727 12.075 88.7727 13.875C88.7727 16.075 87.8477 17.55 86.3477 17.55H86.3227Z" fill="black"/>
<path d="M100.701 20.275C103.951 20.275 107.126 18.225 107.126 13.775C107.126 10.075 104.626 7.49998 100.901 7.49998C96.9514 7.49998 94.3514 10.025 94.3514 13.975C94.3514 17.925 97.1014 20.275 100.676 20.275H100.701ZM100.751 17.55C99.1514 17.55 98.2764 15.975 98.2764 13.9C98.2764 12.075 98.9764 10.225 100.776 10.225C102.501 10.225 103.201 12.075 103.201 13.875C103.201 16.075 102.276 17.55 100.776 17.55H100.751Z" fill="black"/>
<path d="M109.48 20H113.18V12.9C113.18 12.575 113.205 12.225 113.33 11.925C113.555 11.325 114.13 10.575 115.105 10.575C116.33 10.575 116.88 11.625 116.88 13.15V20H120.58V12.85C120.58 12.55 120.63 12.175 120.705 11.9C120.98 11.175 121.58 10.575 122.48 10.575C123.705 10.575 124.28 11.6 124.28 13.375V20H127.98V12.8C127.98 9.14998 126.205 7.49998 123.855 7.49998C122.955 7.49998 122.205 7.72498 121.53 8.09998C120.93 8.44998 120.405 8.94998 119.93 9.59998H119.88C119.355 8.32498 118.13 7.49998 116.53 7.49998C114.455 7.49998 113.355 8.64998 112.83 9.44998H112.755L112.605 7.77498H109.38C109.43 8.87498 109.48 10.15 109.48 11.675V20Z" fill="black"/>
<path d="M132.389 21L137.739 2.87497H135.214L129.864 21H132.389Z" fill="black"/>
<path d="M138.565 19.375C139.49 19.875 140.915 20.25 142.515 20.25C146.015 20.25 147.79 18.575 147.79 16.275C147.765 14.5 146.815 13.325 144.49 12.525C142.99 12.025 142.515 11.7 142.515 11.125C142.515 10.525 143.04 10.15 143.965 10.15C144.99 10.15 146.065 10.55 146.615 10.825L147.265 8.22498C146.515 7.84998 145.265 7.49998 143.84 7.49998C140.815 7.49998 138.865 9.22498 138.865 11.525C138.84 12.95 139.815 14.325 142.365 15.175C143.765 15.625 144.14 15.95 144.14 16.575C144.14 17.2 143.665 17.575 142.515 17.575C141.39 17.575 139.94 17.1 139.24 16.675L138.565 19.375Z" fill="black"/>
<path d="M150.105 20H153.905V12.75C153.905 12.475 153.93 12.15 154.03 11.925C154.305 11.225 154.93 10.575 155.93 10.575C157.355 10.575 157.905 11.675 157.905 13.275V20H161.705V12.875C161.705 9.17498 159.855 7.49998 157.43 7.49998C156.73 7.49998 156.03 7.67498 155.455 7.97498C154.855 8.27498 154.355 8.69998 153.955 9.24998H153.905V2.22498H150.105V20Z" fill="black"/>
<path d="M175.554 15.1C175.604 14.825 175.679 14.25 175.679 13.6C175.679 10.575 174.179 7.49998 170.229 7.49998C166.004 7.49998 164.054 10.925 164.054 14.025C164.054 17.85 166.429 20.25 170.579 20.25C172.229 20.25 173.754 20 175.004 19.475L174.504 16.9C173.479 17.25 172.429 17.425 171.129 17.425C169.354 17.425 167.804 16.675 167.679 15.1H175.554ZM167.654 12.5C167.754 11.5 168.404 10.025 170.029 10.025C171.754 10.025 172.154 11.575 172.154 12.5H167.654Z" fill="black"/>
<path d="M177.962 16.35C177.962 17.725 177.912 19.2 177.862 20H181.087L181.237 18.3H181.287C182.137 19.75 183.537 20.275 184.962 20.275C187.762 20.275 190.537 18.075 190.537 13.675C190.562 9.92498 188.437 7.49998 185.512 7.49998C183.812 7.49998 182.537 8.17498 181.812 9.22498H181.762V2.22498H177.962V16.35ZM181.762 13C181.762 12.75 181.787 12.525 181.837 12.3C182.087 11.2 183.037 10.425 184.062 10.425C185.837 10.425 186.687 11.925 186.687 13.825C186.687 16.025 185.687 17.275 184.062 17.275C182.962 17.275 182.087 16.475 181.837 15.475C181.787 15.275 181.762 15.05 181.762 14.8V13Z" fill="black"/>
<path d="M203.078 12.775C203.078 9.89998 201.803 7.49998 197.728 7.49998C195.503 7.49998 193.828 8.12498 192.978 8.59998L193.678 11.025C194.478 10.55 195.803 10.125 197.053 10.125C198.928 10.125 199.278 11.05 199.278 11.7V11.85C194.953 11.85 192.103 13.35 192.103 16.525C192.103 18.475 193.578 20.275 196.053 20.275C197.503 20.275 198.753 19.75 199.553 18.775H199.628L199.853 20H203.278C203.128 19.325 203.078 18.2 203.078 17.05V12.775ZM199.403 15.55C199.403 15.775 199.378 16 199.328 16.2C199.078 16.975 198.278 17.6 197.353 17.6C196.503 17.6 195.853 17.125 195.853 16.15C195.853 14.7 197.403 14.225 199.403 14.225V15.55Z" fill="black"/>
<path d="M206.111 20H209.911V12.95C209.911 12.6 209.936 12.25 210.036 12C210.311 11.3 210.936 10.575 211.986 10.575C213.361 10.575 213.911 11.65 213.911 13.225V20H217.711V12.775C217.711 9.17498 215.836 7.49998 213.336 7.49998C211.286 7.49998 210.061 8.67498 209.561 9.47498H209.486L209.311 7.77498H206.011C206.061 8.87498 206.111 10.15 206.111 11.675V20Z" fill="black"/>
<path d="M232.334 11.425C232.334 9.59998 232.384 8.57498 232.434 7.77498H229.134L229.009 9.24998H228.959C228.334 8.22498 227.284 7.49998 225.609 7.49998C222.584 7.49998 220.059 9.99998 220.059 13.95C220.059 17.45 222.209 19.9 225.234 19.9C226.634 19.9 227.809 19.325 228.534 18.325H228.584V19.1C228.584 21.375 227.209 22.325 225.409 22.325C223.959 22.325 222.634 21.85 221.859 21.4L221.109 24.3C222.209 24.9 223.884 25.225 225.509 25.225C227.309 25.225 229.134 24.875 230.459 23.725C231.859 22.5 232.334 20.575 232.334 18.225V11.425ZM228.534 14.55C228.534 14.875 228.509 15.275 228.409 15.575C228.159 16.45 227.384 17.1 226.384 17.1C224.809 17.1 223.909 15.675 223.909 13.85C223.909 11.625 225.009 10.375 226.409 10.375C227.459 10.375 228.184 11.05 228.459 12.05C228.509 12.275 228.534 12.525 228.534 12.75V14.55Z" fill="black"/>
</svg>
